{"title":"Naan Mahan Alla (2010) Tamil 1CD Xvid  Mp3@Mastitorrents","uid":5839604,"size":719920536,"categoryP":"video","categoryS":"movies","magnet":"?xt=urn:btih:7a92bebde949055d821be33e22882ae3a3a2a495&amp;dn=Naan+Mahan+Alla+%282010%29+Tamil+1CD+Xvid++Mp3%40Mastitorrents&amp;tr=udp%3A%2F%2Ftracker.openbittorrent.com%3A80&amp;tr=udp%3A%2F%2Fopen.demonii.com%3A1337&amp;tr=udp%3A%2F%2Ftracker.coppersurfer.tk%3A6969&amp;tr=udp%3A%2F%2Fexodus.desync.com%3A6969","seeders":0,"leechers":0,"uploader":"amanrulz","files":2,"time":1284887476,"description":"mastitorrents.com\n &lt;a href=&quot;\nhttp://mastitorrents.com/forums/index.php&quot; rel=&quot;nofollow&quot; target=&quot;_NEW&quot;&gt;\nhttp://mastitorrents.com/forums/index.php&lt;/a&gt;\n\nStarring: Karthi,Kajal Aggarwal,Jayaprakash,Soori\nDirected: Suseenthiran\nProduced: K. E. Gnanavelraja, S. R. Prakash Babu,S. R. Prabhu\nWritten: Suseenthiran, Bhaskar Sakthi\nMusic :Yuvan Shankar Raja\n\nFormat                           : AVI \nFormat/Info                      : Audio Video Interleave \nFormat profile                   : OpenDML \nFile size                        : 687 MiB \nDuration                         : 2h 6mn \nOverall bit rate                 : 761 Kbps \nWriting application              : AVI-Mux GUI 1.17.8.3, Feb 16 201019:42:50  Video \nID                               : 0 \nFormat                           : MPEG-4 Visual \nFormat profile                   : Advanced Simple@L5 \nFormat settings, BVOP            : Yes \nFormat settings, QPel            : Yes \nFormat settings, GMC             : No warppoints \nFormat settings, Matrix          : Default (H.263) \nCodec ID                         : XVID \nCodec ID/Hint                    : XviD \nDuration                         : 2h 6mn \nBit rate                         : 648 Kbps \nWidth                            : 608 pixels \nHeight                           : 272 pixels \nDisplay aspect ratio             : 2.25:1 \nFrame rate                       : 29.970 fps \nColor space                      : YUV \nChroma subsampling               : 4:2:0 \nBit depth                        : 8 bits \nScan type                        : Progressive \nBits/(Pixel*Frame)               : 0.131 \nStream size                      : 585 MiB (85%) \nWriting library                  : XviD 1.2.1 (UTC 2008-12-04)  Audio ID                               : 1 \nFormat                           : MPEG Audio \nFormat version                   : Version 1 \nFormat profile                   : Layer 3 \nMode                             : Joint stereo \nMode extension                   : MS Stereo \nCodec ID                         : 55 \nCodec ID/Hint                    : MP3 \nDuration                         : 2h 6mn \nBit rate mode                    : Variable \nBit rate                         : 104 Kbps \nNominal bit rate                 : 112 Kbps \nChannel(s)                       : 2 channels \nSampling rate                    : 44.1 KHz \nStream size                      : 93.6 MiB (14%) \nAlignment                        : Aligned on interleaves","torrent":{"xt":"urn:btih:7a92bebde949055d821be33e22882ae3a3a2a495","amp;dn":"Naan+Mahan+Alla+%282010%29+Tamil+1CD+Xvid++Mp3%40Mastitorrents","amp;tr":["udp%3A%2F%2Ftracker.openbittorrent.com%3A80","udp%3A%2F%2Fopen.demonii.com%3A1337","udp%3A%2F%2Ftracker.coppersurfer.tk%3A6969","udp%3A%2F%2Fexodus.desync.com%3A6969"],"infoHash":"7a92bebde949055d821be33e22882ae3a3a2a495","infoHashBuffer":{"type":"Buffer","data":[122,146,190,189,233,73,5,93,130,27,227,62,34,136,42,227,163,162,164,149]},"announce":[],"urlList":[]}}